<svg xmlns="http://www.w3.org/2000/svg" viewBox="0 0 526 82"><g fill="none"><path fill="#041C2C" d="M25.798 2.454c3.655 0 7.029.615 10.122 1.845 3.093 1.231 5.717 3.03 7.873 5.396l-3.304 3.337c-3.843-3.929-8.693-5.893-14.55-5.893-3.89 0-7.428.9-10.615 2.698-3.187 1.798-5.682 4.26-7.486 7.383-1.804 3.124-2.707 6.626-2.707 10.507 0 3.88.903 7.383 2.707 10.507 1.804 3.123 4.3 5.584 7.486 7.383 3.187 1.798 6.725 2.698 10.614 2.698 5.905 0 10.755-1.988 14.551-5.964l3.304 3.337c-2.156 2.366-4.792 4.177-7.908 5.43C32.768 52.374 29.383 53 25.727 53c-4.873 0-9.267-1.089-13.18-3.266-3.913-2.177-6.982-5.194-9.208-9.051S0 32.507 0 27.727c0-4.78 1.113-9.099 3.339-12.956 2.226-3.857 5.307-6.875 9.244-9.052 3.936-2.177 8.341-3.265 13.215-3.265zm486.617 4.712v8.16h11.204v4.256h-11.204v22.279c0 2.223.548 3.914 1.645 5.073 1.097 1.159 2.673 1.738 4.727 1.738 1.027 0 2.02-.166 2.976-.497.957-.33 1.786-.804 2.486-1.419L526 50.375c-.934.851-2.09 1.502-3.466 1.951-1.378.45-2.813.674-4.307.674-3.455 0-6.116-.946-7.983-2.838-1.868-1.892-2.801-4.564-2.801-8.017V19.582h-6.583v-4.257h6.583V7.166h4.972zm-301.68 0v8.16h11.205v4.256h-11.204v22.279c0 2.223.548 3.914 1.645 5.073 1.097 1.159 2.673 1.738 4.727 1.738 1.027 0 2.02-.166 2.976-.497.957-.33 1.786-.804 2.486-1.419l1.75 3.619c-.933.851-2.088 1.502-3.465 1.951-1.378.45-2.813.674-4.307.674-3.455 0-6.116-.946-7.983-2.838-1.868-1.892-2.801-4.564-2.801-8.017V19.582h-6.583v-4.257h6.583V7.166h4.972zM473.9 0v52.645h-4.761v-7.379c-1.494 2.507-3.467 4.423-5.918 5.747-2.45 1.325-5.217 1.987-8.298 1.987-3.455 0-6.583-.804-9.384-2.412-2.8-1.609-4.995-3.855-6.582-6.74-1.588-2.886-2.381-6.173-2.381-9.863s.793-6.977 2.38-9.862c1.588-2.885 3.782-5.12 6.583-6.705 2.801-1.584 5.93-2.377 9.384-2.377 2.988 0 5.684.627 8.088 1.88 2.404 1.254 4.377 3.087 5.917 5.5V0h4.972zm-61.624 15.041c3.408 0 6.466.805 9.174 2.413 2.707 1.608 4.832 3.843 6.372 6.705 1.54 2.861 2.311 6.137 2.311 9.826l-.07 1.561H399.25c.28 3.879 1.75 7.012 4.412 9.401 2.66 2.389 6.022 3.583 10.084 3.583 2.287 0 4.388-.414 6.302-1.242s3.572-2.045 4.972-3.653l2.801 3.263c-1.634 1.987-3.676 3.5-6.127 4.541-2.451 1.04-5.147 1.561-8.088 1.561-3.782 0-7.131-.816-10.05-2.448-2.917-1.632-5.193-3.89-6.827-6.776-1.634-2.885-2.451-6.149-2.451-9.79 0-3.643.782-6.907 2.346-9.792s3.711-5.132 6.442-6.74c2.732-1.608 5.801-2.413 9.21-2.413zm-108.893 0c3.408 0 6.466.805 9.174 2.413 2.708 1.608 4.832 3.843 6.372 6.705 1.54 2.861 2.311 6.137 2.311 9.826l-.07 1.561h-30.812c.28 3.879 1.75 7.012 4.412 9.401 2.66 2.389 6.022 3.583 10.084 3.583 2.287 0 4.388-.414 6.302-1.242s3.572-2.045 4.972-3.653l2.801 3.263c-1.634 1.987-3.676 3.5-6.127 4.541-2.451 1.04-5.147 1.561-8.088 1.561-3.782 0-7.131-.816-10.05-2.448-2.917-1.632-5.193-3.89-6.827-6.776-1.634-2.885-2.451-6.149-2.451-9.79 0-3.643.782-6.907 2.346-9.792s3.711-5.132 6.443-6.74c2.73-1.608 5.8-2.413 9.208-2.413zm43.277 0c3.175 0 6.01.627 8.509 1.88 2.497 1.254 4.47 3.087 5.917 5.5l-3.712 2.554c-1.213-1.845-2.754-3.229-4.621-4.151-1.868-.922-3.899-1.384-6.093-1.384-2.66 0-5.053.604-7.178 1.81-2.124 1.206-3.781 2.92-4.972 5.144-1.19 2.223-1.785 4.753-1.785 7.591 0 2.886.595 5.428 1.785 7.627 1.19 2.2 2.848 3.903 4.972 5.109 2.125 1.206 4.517 1.81 7.178 1.81 2.194 0 4.225-.45 6.093-1.349 1.867-.899 3.408-2.27 4.621-4.115l3.712 2.554a14.151 14.151 0 01-5.952 5.499c-2.521 1.253-5.346 1.88-8.474 1.88-3.641 0-6.897-.804-9.769-2.412-2.87-1.609-5.123-3.867-6.757-6.776-1.634-2.91-2.451-6.185-2.451-9.827 0-3.642.817-6.906 2.45-9.79 1.635-2.886 3.887-5.133 6.758-6.741 2.872-1.608 6.128-2.413 9.77-2.413zm-189.214 0c4.621 0 8.298 1.36 11.029 4.08 2.731 2.72 4.097 6.681 4.097 11.884v21.64h-4.972V31.502c0-3.879-.957-6.835-2.872-8.869-1.914-2.034-4.645-3.05-8.193-3.05-3.968 0-7.108 1.194-9.419 3.582-2.31 2.389-3.466 5.688-3.466 9.898v19.582h-4.972v-37.32h4.762v6.882c1.354-2.27 3.233-4.032 5.637-5.285 2.405-1.254 5.194-1.88 8.369-1.88zm33.613.284v37.32h-4.972v-37.32h4.972zm301.679 0v37.32h-4.972v-37.32h4.972zm-254.41 0v37.32h-4.972v-37.32h4.971zm12.184 0l13.796 31.786 13.935-31.786h4.902l-16.386 37.32h-5.112l-16.317-37.32h5.182zm138.865-.284v4.896l-1.19-.07c-3.875 0-6.91 1.205-9.104 3.618-2.194 2.412-3.291 5.794-3.291 10.146v19.014h-4.972v-37.32h4.762v7.308c1.167-2.507 2.906-4.399 5.217-5.676 2.31-1.277 5.17-1.916 8.578-1.916zm65.966 4.4c-2.614 0-4.96.603-7.038 1.809-2.077 1.206-3.711 2.92-4.902 5.144-1.19 2.223-1.785 4.753-1.785 7.591s.595 5.369 1.785 7.592 2.825 3.938 4.902 5.144c2.078 1.206 4.424 1.81 7.038 1.81 2.568 0 4.89-.604 6.968-1.81 2.077-1.206 3.711-2.92 4.902-5.144 1.19-2.223 1.786-4.754 1.786-7.592s-.596-5.368-1.786-7.591c-1.19-2.224-2.825-3.938-4.902-5.144-2.078-1.206-4.4-1.81-6.968-1.81zm-43.067-.072c-3.548 0-6.524 1.147-8.928 3.442-2.405 2.294-3.77 5.285-4.097 8.975h26.12c-.327-3.69-1.692-6.681-4.096-8.975-2.405-2.295-5.404-3.442-8.999-3.442zm-108.893 0c-3.548 0-6.524 1.147-8.928 3.442-2.405 2.294-3.77 5.285-4.097 8.975h26.12c-.326-3.69-1.692-6.681-4.096-8.975-2.405-2.295-5.404-3.442-8.999-3.442zM235.876 0c1.027 0 1.89.343 2.59 1.029.7.686 1.05 1.502 1.05 2.448 0 1.04-.35 1.915-1.05 2.625-.7.71-1.563 1.064-2.59 1.064-1.028 0-1.891-.355-2.592-1.064-.7-.71-1.05-1.561-1.05-2.554 0-.946.35-1.774 1.05-2.484.7-.71 1.564-1.064 2.592-1.064zm-47.27 0c1.028 0 1.892.343 2.592 1.029.7.686 1.05 1.502 1.05 2.448 0 1.04-.35 1.915-1.05 2.625-.7.71-1.564 1.064-2.591 1.064-1.027 0-1.89-.355-2.591-1.064-.7-.71-1.05-1.561-1.05-2.554 0-.946.35-1.774 1.05-2.484.7-.71 1.564-1.064 2.59-1.064zm301.68 0c1.027 0 1.89.343 2.59 1.029.701.686 1.051 1.502 1.051 2.448 0 1.04-.35 1.915-1.05 2.625-.7.71-1.564 1.064-2.591 1.064-1.027 0-1.89-.355-2.591-1.064-.7-.71-1.05-1.561-1.05-2.554 0-.946.35-1.774 1.05-2.484.7-.71 1.564-1.064 2.59-1.064z"></path><path fill="#2A9D8F" d="M113.853 15c3.25 0 6.18.72 8.788 2.16a15.613 15.613 0 016.127 6.035c1.475 2.583 2.213 5.505 2.213 8.766 0 3.26-.738 6.183-2.213 8.766-1.476 2.584-3.518 4.606-6.127 6.067-1.429.8-2.954 1.381-4.576 1.743l1.119 8.243c2.046.119 3.918.644 5.609 1.578a11.636 11.636 0 014.563 4.494c1.096 1.92 1.644 4.09 1.644 6.502s-.548 4.582-1.644 6.502a11.795 11.795 0 01-4.56 4.516c-1.94 1.085-4.115 1.628-6.52 1.628-2.406 0-4.581-.543-6.52-1.628a11.96 11.96 0 01-4.582-4.514c-1.113-1.92-1.669-4.091-1.669-6.504s.556-4.584 1.67-6.504a11.797 11.797 0 014.584-4.492c.796-.44 1.633-.79 2.509-1.048l-1.133-8.337c-2.965-.1-5.655-.826-8.07-2.18a16.063 16.063 0 01-6.159-6.066c-1.052-1.816-1.734-3.799-2.047-5.95l-10.142.475c-.207 2.958-1 5.645-2.382 8.063-1.623 2.843-3.87 5.068-6.742 6.676-2.871 1.608-6.095 2.412-9.672 2.412-3.577 0-6.801-.804-9.672-2.412a17.679 17.679 0 01-6.778-6.676C49.824 40.472 49 37.255 49 33.667c0-3.59.824-6.805 2.471-9.648 1.647-2.843 3.907-5.057 6.778-6.642C61.119 15.792 64.344 15 67.92 15c3.577 0 6.801.792 9.672 2.377 2.871 1.585 5.119 3.799 6.742 6.642 1.114 1.95 1.846 4.076 2.196 6.378l10.233-.48c.251-2.45.965-4.69 2.142-6.722a15.837 15.837 0 016.159-6.035c2.608-1.44 5.538-2.16 8.788-2.16zm4.433 45.297c-1.668 0-3.164.376-4.49 1.13-1.325.752-2.367 1.823-3.126 3.21-.76 1.388-1.14 2.968-1.14 4.74 0 1.771.38 3.351 1.14 4.739.76 1.388 1.801 2.458 3.127 3.211 1.325.753 2.821 1.13 4.489 1.13 1.667 0 3.164-.377 4.489-1.13 1.325-.753 2.36-1.823 3.104-3.211.745-1.388 1.117-2.968 1.117-4.74 0-1.77-.372-3.35-1.117-4.738-.744-1.388-1.78-2.459-3.104-3.212-1.325-.753-2.822-1.129-4.49-1.129zM67.92 19.335c-2.636 0-5.001.594-7.095 1.782-2.095 1.189-3.742 2.878-4.942 5.07-1.2 2.19-1.8 4.683-1.8 7.48 0 2.796.6 5.29 1.8 7.48 1.2 2.191 2.847 3.88 4.942 5.07 2.094 1.188 4.46 1.782 7.095 1.782s5-.594 7.095-1.783c2.095-1.188 3.73-2.878 4.907-5.069 1.177-2.19 1.765-4.684 1.765-7.48 0-2.797-.588-5.29-1.765-7.48-1.177-2.192-2.812-3.881-4.907-5.07-2.094-1.188-4.46-1.782-7.095-1.782zm45.932-.396c-2.395 0-4.544.54-6.447 1.62-1.903 1.08-3.4 2.614-4.49 4.605-1.09 1.99-1.636 4.256-1.636 6.797 0 2.541.545 4.807 1.636 6.797 1.09 1.99 2.587 3.526 4.49 4.606s4.052 1.62 6.447 1.62c2.395 0 4.544-.54 6.447-1.62 1.903-1.08 3.39-2.615 4.458-4.606 1.07-1.99 1.604-4.256 1.604-6.797 0-2.541-.535-4.807-1.604-6.797-1.069-1.99-2.555-3.526-4.458-4.606s-4.052-1.62-6.447-1.62z"></path></g></svg>