<?xml version="1.0" encoding="UTF-8" standalone="no"?>
<!DOCTYPE svg PUBLIC "-//W3C//DTD SVG 1.1//EN" "http://www.w3.org/Graphics/SVG/1.1/DTD/svg11.dtd">
<svg width="100%" height="100%" viewBox="0 0 560 90" version="1.1" xmlns="http://www.w3.org/2000/svg" xmlns:xlink="http://www.w3.org/1999/xlink" xml:space="preserve" xmlns:serif="http://www.serif.com/" style="fill-rule:evenodd;clip-rule:evenodd;stroke-linejoin:round;stroke-miterlimit:2;">
    <g transform="matrix(1,0,0,1,17,4)">
        <g transform="matrix(1,0,0,0.980003,-16.5509,-2.99013)">
            <path d="M559.551,21.929C559.551,9.257 549.469,-1.03 537.051,-1.03L22.051,-1.03C9.633,-1.03 -0.449,9.257 -0.449,21.929L-0.449,67.847C-0.449,80.518 9.633,90.806 22.051,90.806L537.051,90.806C549.469,90.806 559.551,80.518 559.551,67.847L559.551,21.929Z" style="fill:rgb(235,235,235);fill-opacity:0.75;"/>
        </g>
        <g transform="matrix(0.841503,0,0,0.841503,41.8432,6.65687)">
            <g transform="matrix(1,0,0,1,-17,-4)">
                <path d="M132.853,21C136.103,21 139.033,21.72 141.641,23.16C144.208,24.558 146.331,26.65 147.768,29.195C149.243,31.778 149.981,34.7 149.981,37.961C149.981,41.221 149.243,44.144 147.768,46.727C146.292,49.311 144.25,51.333 141.641,52.794C140.212,53.594 138.687,54.175 137.065,54.537L138.184,62.78C140.23,62.899 142.102,63.424 143.793,64.358C145.704,65.4 147.285,66.957 148.356,68.852C149.452,70.772 150,72.942 150,75.354C150,77.766 149.452,79.936 148.356,81.856C147.283,83.754 145.704,85.317 143.796,86.372C141.856,87.457 139.681,88 137.276,88C134.87,88 132.695,87.457 130.756,86.372C128.845,85.314 127.26,83.753 126.174,81.858C125.061,79.938 124.505,77.767 124.505,75.354C124.505,72.941 125.061,70.77 126.175,68.85C127.258,66.958 128.845,65.403 130.759,64.358C131.555,63.918 132.392,63.568 133.268,63.31L132.135,54.973C129.17,54.873 126.48,54.147 124.065,52.793C121.496,51.372 119.366,49.274 117.906,46.727C116.854,44.911 116.172,42.928 115.859,40.777L105.717,41.252C105.51,44.21 104.717,46.897 103.335,49.315C101.712,52.158 99.465,54.383 96.593,55.991C93.722,57.599 90.498,58.403 86.921,58.403C83.344,58.403 80.12,57.599 77.249,55.991C74.422,54.427 72.078,52.118 70.471,49.315C68.824,46.472 68,43.255 68,39.667C68,36.077 68.824,32.862 70.471,30.019C72.118,27.176 74.378,24.962 77.249,23.377C80.119,21.792 83.344,21 86.92,21C90.497,21 93.721,21.792 96.592,23.377C99.463,24.962 101.711,27.176 103.334,30.019C104.448,31.969 105.18,34.095 105.53,36.397L115.763,35.917C116.014,33.467 116.728,31.227 117.905,29.195C119.36,26.653 121.493,24.563 124.064,23.16C126.672,21.72 129.602,21 132.852,21L132.853,21ZM137.286,66.297L137.286,66.297L137.285,66.297L137.286,66.297C135.618,66.297 134.122,66.673 132.796,67.427C131.471,68.179 130.429,69.25 129.67,70.637C128.91,72.025 128.53,73.605 128.53,75.377C128.53,77.148 128.91,78.728 129.67,80.116C130.43,81.504 131.471,82.574 132.797,83.327C134.122,84.08 135.618,84.457 137.286,84.457C138.953,84.457 140.45,84.08 141.775,83.327C143.1,82.574 144.135,81.504 144.879,80.116C145.624,78.728 145.996,77.148 145.996,75.376C145.996,73.606 145.624,72.026 144.879,70.638C144.135,69.25 143.099,68.179 141.775,67.426C140.45,66.673 138.953,66.297 137.286,66.297ZM365.661,21.041L365.66,21.041L365.661,21.041L365.661,21.041C368.836,21.041 371.67,21.668 374.169,22.921C376.666,24.175 378.639,26.008 380.086,28.421L376.374,30.975C375.161,29.13 373.62,27.746 371.753,26.824C369.885,25.902 367.854,25.44 365.66,25.44C363,25.44 360.607,26.044 358.482,27.25C356.358,28.456 354.701,30.17 353.51,32.394C352.32,34.617 351.725,37.147 351.725,39.985C351.725,42.871 352.32,45.413 353.51,47.612C354.7,49.812 356.358,51.515 358.482,52.721C360.607,53.927 362.999,54.531 365.66,54.531C367.854,54.531 369.885,54.081 371.753,53.182C373.62,52.283 375.161,50.912 376.374,49.067L380.086,51.621C378.681,53.995 376.611,55.907 374.134,57.12C371.613,58.373 368.788,59 365.66,59C362.019,59 358.763,58.196 355.891,56.588C353.021,54.979 350.768,52.721 349.134,49.812C347.5,46.902 346.683,43.627 346.683,39.985C346.683,36.343 347.5,33.079 349.133,30.195C350.768,27.309 353.02,25.062 355.891,23.454C358.763,21.846 362.019,21.041 365.661,21.041ZM229.735,21.326L240.94,21.326L240.94,25.582L229.736,25.582L229.736,47.861C229.736,50.084 230.284,51.775 231.381,52.934C232.478,54.093 234.054,54.672 236.108,54.672C237.135,54.672 238.128,54.506 239.084,54.175C240.041,53.845 240.87,53.371 241.57,52.756L243.32,56.375C242.387,57.226 241.232,57.877 239.855,58.326C238.477,58.776 237.042,59 235.548,59C232.093,59 229.432,58.054 227.565,56.162C225.697,54.27 224.764,51.598 224.764,48.145L224.764,25.582L218.181,25.582L218.181,21.325L224.764,21.325L224.764,13.166L229.735,13.166L229.735,21.326ZM492.9,6L492.9,58.645L488.139,58.645L488.139,51.266C486.645,53.773 484.672,55.689 482.221,57.013C479.771,58.338 477.004,59 473.923,59C470.468,59 467.34,58.196 464.539,56.588C461.739,54.979 459.544,52.733 457.957,49.848C456.369,46.962 455.576,43.675 455.576,39.985C455.576,36.295 456.369,33.008 457.956,30.123C459.544,27.238 461.738,25.003 464.539,23.418C467.34,21.834 470.469,21.041 473.923,21.041C476.911,21.041 479.607,21.668 482.011,22.921C484.415,24.175 486.388,26.008 487.928,28.421L487.928,6L492.9,6ZM431.276,21.041C434.684,21.041 437.742,21.846 440.45,23.454C443.157,25.062 445.282,27.297 446.822,30.159C448.362,33.02 449.133,36.296 449.133,39.985L449.063,41.546L418.25,41.546C418.53,45.425 420,48.558 422.662,50.947C425.322,53.336 428.684,54.53 432.746,54.53C435.033,54.53 437.134,54.116 439.048,53.288C440.962,52.46 442.62,51.243 444.02,49.635L446.821,52.898C445.187,54.885 443.145,56.398 440.694,57.439C438.243,58.479 435.547,59 432.606,59C428.824,59 425.475,58.184 422.556,56.552C419.639,54.92 417.363,52.662 415.729,49.776C414.095,46.891 413.278,43.627 413.278,39.986C413.278,36.343 414.06,33.079 415.624,30.194C417.188,27.309 419.335,25.062 422.066,23.454C424.798,21.846 427.867,21.041 431.276,21.041ZM322.383,21.041C325.791,21.041 328.849,21.846 331.557,23.454C334.265,25.062 336.389,27.297 337.929,30.159C339.469,33.02 340.24,36.296 340.24,39.985L340.17,41.546L309.358,41.546C309.638,45.425 311.108,48.558 313.77,50.947C316.43,53.336 319.792,54.53 323.854,54.53C326.141,54.53 328.242,54.116 330.156,53.288C332.07,52.46 333.728,51.243 335.128,49.635L337.929,52.898C336.295,54.885 334.253,56.398 331.802,57.439C329.351,58.479 326.655,59 323.714,59C319.932,59 316.583,58.184 313.664,56.552C310.747,54.92 308.471,52.662 306.837,49.776C305.203,46.891 304.386,43.627 304.386,39.986C304.386,36.343 305.168,33.079 306.732,30.194C308.296,27.309 310.443,25.062 313.175,23.454C315.905,21.846 318.975,21.041 322.383,21.041ZM44.798,8.454C48.453,8.454 51.827,9.069 54.92,10.299C58.013,11.53 60.637,13.329 62.793,15.695L59.489,19.032C55.646,15.103 50.796,13.139 44.939,13.139C41.049,13.139 37.511,14.039 34.324,15.837C31.137,17.635 28.642,20.097 26.838,23.22C25.034,26.344 24.131,29.846 24.131,33.727C24.131,37.607 25.034,41.11 26.838,44.234C28.642,47.357 31.138,49.818 34.324,51.617C37.511,53.415 41.049,54.315 44.938,54.315C50.843,54.315 55.693,52.327 59.489,48.351L62.793,51.688C60.637,54.054 58.001,55.865 54.885,57.118C51.768,58.374 48.383,59 44.727,59C39.854,59 35.46,57.911 31.547,55.734C27.634,53.557 24.565,50.54 22.339,46.683C20.113,42.826 19,38.507 19,33.727C19,28.947 20.113,24.628 22.339,20.771C24.565,16.914 27.646,13.896 31.583,11.719C35.519,9.542 39.924,8.454 44.798,8.454ZM531.415,13.166L531.415,21.326L542.619,21.326L542.619,25.582L531.415,25.582L531.415,47.861C531.415,50.084 531.963,51.775 533.06,52.934C534.157,54.093 535.733,54.672 537.787,54.672C538.814,54.672 539.807,54.506 540.763,54.175C541.72,53.845 542.549,53.371 543.249,52.756L545,56.375C544.066,57.226 542.91,57.877 541.534,58.326C540.156,58.776 538.721,59 537.227,59C533.772,59 531.111,58.054 529.244,56.162C527.376,54.27 526.443,51.598 526.443,48.145L526.443,25.582L519.86,25.582L519.86,21.325L526.443,21.325L526.443,13.166L531.415,13.166ZM210.059,21.325L210.059,58.645L205.087,58.645L205.087,21.325L210.059,21.325ZM257.328,21.325L257.328,58.645L252.356,58.645L252.356,21.325L257.328,21.325ZM176.446,21.041C181.067,21.041 184.744,22.401 187.475,25.121C190.206,27.841 191.572,31.802 191.572,37.005L191.572,58.645L186.6,58.645L186.6,37.502C186.6,33.623 185.643,30.667 183.728,28.633C181.814,26.599 179.083,25.583 175.535,25.583C171.567,25.583 168.427,26.777 166.116,29.165C163.806,31.554 162.65,34.853 162.65,39.063L162.65,58.645L157.678,58.645L157.678,21.325L162.44,21.325L162.44,28.207C163.794,25.937 165.673,24.175 168.077,22.922C170.482,21.668 173.271,21.042 176.446,21.042L176.446,21.041ZM511.738,21.325L511.738,58.645L506.766,58.645L506.766,21.325L511.738,21.325ZM269.512,21.325L283.308,53.111L297.243,21.325L302.145,21.325L285.759,58.645L280.647,58.645L264.33,21.325L269.512,21.325ZM408.377,21.041L408.377,25.937L407.187,25.867C403.312,25.867 400.277,27.072 398.083,29.485C395.889,31.897 394.792,35.279 394.792,39.631L394.792,58.645L389.82,58.645L389.82,21.325L394.582,21.325L394.582,28.633C395.749,26.126 397.488,24.234 399.799,22.957C402.109,21.68 404.969,21.041 408.377,21.041ZM474.343,25.441C471.729,25.441 469.383,26.044 467.305,27.25C465.228,28.456 463.594,30.17 462.403,32.394C461.213,34.617 460.618,37.147 460.618,39.985C460.618,42.823 461.213,45.354 462.403,47.577C463.593,49.8 465.228,51.515 467.305,52.721C469.383,53.927 471.729,54.531 474.343,54.531C476.911,54.531 479.233,53.927 481.311,52.721C483.388,51.515 485.022,49.801 486.213,47.577C487.403,45.354 487.999,42.823 487.999,39.985C487.999,37.147 487.403,34.617 486.213,32.394C485.023,30.17 483.388,28.456 481.311,27.25C479.233,26.044 476.911,25.44 474.343,25.44L474.343,25.441ZM86.92,25.335C84.284,25.335 81.919,25.929 79.825,27.117C77.73,28.306 76.083,29.995 74.883,32.187C73.683,34.377 73.083,36.87 73.083,39.667C73.083,42.463 73.683,44.957 74.883,47.147C76.083,49.338 77.73,51.027 79.825,52.217C81.919,53.405 84.285,53.999 86.92,53.999C89.555,53.999 91.92,53.405 94.015,52.216C96.11,51.028 97.745,49.338 98.922,47.147C100.099,44.957 100.687,42.463 100.687,39.667C100.687,36.87 100.099,34.377 98.922,32.187C97.745,29.995 96.11,28.306 94.015,27.117C91.921,25.929 89.555,25.335 86.92,25.335ZM132.852,24.939C130.457,24.939 128.308,25.479 126.405,26.559C124.502,27.639 123.005,29.173 121.915,31.164C120.825,33.154 120.279,35.42 120.279,37.961C120.279,40.502 120.824,42.768 121.915,44.758C123.005,46.748 124.502,48.284 126.405,49.364C128.308,50.444 130.457,50.984 132.852,50.984C135.247,50.984 137.396,50.444 139.299,49.364C141.202,48.284 142.689,46.749 143.757,44.758C144.827,42.768 145.361,40.502 145.361,37.961C145.361,35.42 144.826,33.154 143.757,31.164C142.688,29.174 141.202,27.638 139.299,26.558C137.396,25.478 135.247,24.938 132.852,24.938L132.852,24.939ZM431.276,25.369C427.728,25.369 424.752,26.516 422.348,28.811C419.943,31.105 418.578,34.096 418.251,37.786L444.371,37.786C444.044,34.096 442.679,31.105 440.275,28.811C437.87,26.516 434.871,25.369 431.276,25.369ZM322.383,25.369C318.835,25.369 315.859,26.516 313.455,28.811C311.05,31.105 309.685,34.096 309.358,37.786L335.478,37.786C335.152,34.096 333.786,31.105 331.382,28.811C328.977,26.516 325.978,25.369 322.383,25.369ZM254.876,6C255.903,6 256.766,6.343 257.466,7.029C258.166,7.715 258.516,8.531 258.516,9.477C258.516,10.517 258.166,11.392 257.466,12.102C256.766,12.812 255.903,13.166 254.876,13.166C253.848,13.166 252.985,12.811 252.284,12.102C251.584,11.392 251.234,10.541 251.234,9.548C251.234,8.602 251.584,7.774 252.284,7.064C252.984,6.354 253.848,6 254.876,6ZM207.606,6C208.634,6 209.498,6.343 210.198,7.029C210.898,7.715 211.248,8.531 211.248,9.477C211.248,10.517 210.898,11.392 210.198,12.102C209.498,12.812 208.634,13.166 207.607,13.166C206.58,13.166 205.717,12.811 205.016,12.102C204.316,11.392 203.966,10.541 203.966,9.548C203.966,8.602 204.316,7.774 205.016,7.064C205.716,6.354 206.58,6 207.606,6ZM509.286,6C510.313,6 511.176,6.343 511.876,7.029C512.577,7.715 512.927,8.531 512.927,9.477C512.927,10.517 512.577,11.392 511.877,12.102C511.177,12.812 510.313,13.166 509.286,13.166C508.259,13.166 507.396,12.811 506.695,12.102C505.995,11.392 505.645,10.541 505.645,9.548C505.645,8.602 505.995,7.774 506.695,7.064C507.395,6.354 508.259,6 509.285,6L509.286,6Z" style="fill:rgb(4,28,44);fill-opacity:0.27;fill-rule:nonzero;"/>
            </g>
            <g>
                <path d="M25.798,2.454C29.453,2.454 32.827,3.069 35.92,4.299C39.013,5.53 41.637,7.329 43.793,9.695L40.489,13.032C36.646,9.103 31.796,7.139 25.939,7.139C22.049,7.139 18.511,8.039 15.324,9.837C12.137,11.635 9.642,14.097 7.838,17.22C6.034,20.344 5.131,23.846 5.131,27.727C5.131,31.607 6.034,35.11 7.838,38.234C9.642,41.357 12.138,43.818 15.324,45.617C18.511,47.415 22.049,48.315 25.938,48.315C31.843,48.315 36.693,46.327 40.489,42.351L43.793,45.688C41.637,48.054 39.001,49.865 35.885,51.118C32.768,52.374 29.383,53 25.727,53C20.854,53 16.46,51.911 12.547,49.734C8.634,47.557 5.565,44.54 3.339,40.683C1.113,36.826 0,32.507 0,27.727C0,22.947 1.113,18.628 3.339,14.771C5.565,10.914 8.646,7.896 12.583,5.719C16.519,3.542 20.924,2.454 25.798,2.454ZM512.415,7.166L512.415,15.326L523.619,15.326L523.619,19.582L512.415,19.582L512.415,41.861C512.415,44.084 512.963,45.775 514.06,46.934C515.157,48.093 516.733,48.672 518.787,48.672C519.814,48.672 520.807,48.506 521.763,48.175C522.72,47.845 523.549,47.371 524.249,46.756L526,50.375C525.066,51.226 523.91,51.877 522.534,52.326C521.156,52.776 519.721,53 518.227,53C514.772,53 512.111,52.054 510.244,50.162C508.376,48.27 507.443,45.598 507.443,42.145L507.443,19.582L500.86,19.582L500.86,15.325L507.443,15.325L507.443,7.166L512.415,7.166ZM210.735,7.166L210.735,15.326L221.94,15.326L221.94,19.582L210.736,19.582L210.736,41.861C210.736,44.084 211.284,45.775 212.381,46.934C213.478,48.093 215.054,48.672 217.108,48.672C218.135,48.672 219.128,48.506 220.084,48.175C221.041,47.845 221.87,47.371 222.57,46.756L224.32,50.375C223.387,51.226 222.232,51.877 220.855,52.326C219.477,52.776 218.042,53 216.548,53C213.093,53 210.432,52.054 208.565,50.162C206.697,48.27 205.764,45.598 205.764,42.145L205.764,19.582L199.181,19.582L199.181,15.325L205.764,15.325L205.764,7.166L210.736,7.166L210.735,7.166ZM473.9,0L473.9,52.645L469.139,52.645L469.139,45.266C467.645,47.773 465.672,49.689 463.221,51.013C460.771,52.338 458.004,53 454.923,53C451.468,53 448.34,52.196 445.539,50.588C442.739,48.979 440.544,46.733 438.957,43.848C437.369,40.962 436.576,37.675 436.576,33.985C436.576,30.295 437.369,27.008 438.956,24.123C440.544,21.238 442.738,19.003 445.539,17.418C448.34,15.834 451.469,15.041 454.923,15.041C457.911,15.041 460.607,15.668 463.011,16.921C465.415,18.175 467.388,20.008 468.928,22.421L468.928,0L473.9,0ZM412.276,15.041C415.684,15.041 418.742,15.846 421.45,17.454C424.157,19.062 426.282,21.297 427.822,24.159C429.362,27.02 430.133,30.296 430.133,33.985L430.063,35.546L399.25,35.546C399.53,39.425 401,42.558 403.662,44.947C406.322,47.336 409.684,48.53 413.746,48.53C416.033,48.53 418.134,48.116 420.048,47.288C421.962,46.46 423.62,45.243 425.02,43.635L427.821,46.898C426.187,48.885 424.145,50.398 421.694,51.439C419.243,52.479 416.547,53 413.606,53C409.824,53 406.475,52.184 403.556,50.552C400.639,48.92 398.363,46.662 396.729,43.776C395.095,40.891 394.278,37.627 394.278,33.986C394.278,30.343 395.06,27.079 396.624,24.194C398.188,21.309 400.335,19.062 403.066,17.454C405.798,15.846 408.867,15.041 412.276,15.041ZM303.383,15.041C306.791,15.041 309.849,15.846 312.557,17.454C315.265,19.062 317.389,21.297 318.929,24.159C320.469,27.02 321.24,30.296 321.24,33.985L321.17,35.546L290.358,35.546C290.638,39.425 292.108,42.558 294.77,44.947C297.43,47.336 300.792,48.53 304.854,48.53C307.141,48.53 309.242,48.116 311.156,47.288C313.07,46.46 314.728,45.243 316.128,43.635L318.929,46.898C317.295,48.885 315.253,50.398 312.802,51.439C310.351,52.479 307.655,53 304.714,53C300.932,53 297.583,52.184 294.664,50.552C291.747,48.92 289.471,46.662 287.837,43.776C286.203,40.891 285.386,37.627 285.386,33.986C285.386,30.343 286.168,27.079 287.732,24.194C289.296,21.309 291.443,19.062 294.175,17.454C296.905,15.846 299.975,15.041 303.383,15.041ZM346.66,15.041C349.835,15.041 352.67,15.668 355.169,16.921C357.666,18.175 359.639,20.008 361.086,22.421L357.374,24.975C356.161,23.13 354.62,21.746 352.753,20.824C350.885,19.902 348.854,19.44 346.66,19.44C344,19.44 341.607,20.044 339.482,21.25C337.358,22.456 335.701,24.17 334.51,26.394C333.32,28.617 332.725,31.147 332.725,33.985C332.725,36.871 333.32,39.413 334.51,41.612C335.7,43.812 337.358,45.515 339.482,46.721C341.607,47.927 343.999,48.531 346.66,48.531C348.854,48.531 350.885,48.081 352.753,47.182C354.62,46.283 356.161,44.912 357.374,43.067L361.086,45.621C359.681,47.995 357.611,49.907 355.134,51.12C352.613,52.373 349.788,53 346.66,53C343.019,53 339.763,52.196 336.891,50.588C334.021,48.979 331.768,46.721 330.134,43.812C328.5,40.902 327.683,37.627 327.683,33.985C327.683,30.343 328.5,27.079 330.133,24.195C331.768,21.309 334.02,19.062 336.891,17.454C339.763,15.846 343.019,15.041 346.661,15.041L346.66,15.041ZM157.446,15.041C162.067,15.041 165.744,16.401 168.475,19.121C171.206,21.841 172.572,25.802 172.572,31.005L172.572,52.645L167.6,52.645L167.6,31.502C167.6,27.623 166.643,24.667 164.728,22.633C162.814,20.599 160.083,19.583 156.535,19.583C152.567,19.583 149.427,20.777 147.116,23.165C144.806,25.554 143.65,28.853 143.65,33.063L143.65,52.645L138.678,52.645L138.678,15.325L143.44,15.325L143.44,22.207C144.794,19.937 146.673,18.175 149.077,16.922C151.482,15.668 154.271,15.042 157.446,15.042L157.446,15.041ZM191.059,15.325L191.059,52.645L186.087,52.645L186.087,15.325L191.059,15.325ZM492.738,15.325L492.738,52.645L487.766,52.645L487.766,15.325L492.738,15.325ZM238.328,15.325L238.328,52.645L233.356,52.645L233.356,15.325L238.328,15.325ZM250.512,15.325L264.308,47.111L278.243,15.325L283.145,15.325L266.759,52.645L261.647,52.645L245.33,15.325L250.512,15.325ZM389.377,15.041L389.377,19.937L388.187,19.867C384.312,19.867 381.277,21.072 379.083,23.485C376.889,25.897 375.792,29.279 375.792,33.631L375.792,52.645L370.82,52.645L370.82,15.325L375.582,15.325L375.582,22.633C376.749,20.126 378.488,18.234 380.799,16.957C383.109,15.68 385.969,15.041 389.377,15.041ZM455.343,19.441C452.729,19.441 450.383,20.044 448.305,21.25C446.228,22.456 444.594,24.17 443.403,26.394C442.213,28.617 441.618,31.147 441.618,33.985C441.618,36.823 442.213,39.354 443.403,41.577C444.593,43.8 446.228,45.515 448.305,46.721C450.383,47.927 452.729,48.531 455.343,48.531C457.911,48.531 460.233,47.927 462.311,46.721C464.388,45.515 466.022,43.801 467.213,41.577C468.403,39.354 468.999,36.823 468.999,33.985C468.999,31.147 468.403,28.617 467.213,26.394C466.023,24.17 464.388,22.456 462.311,21.25C460.233,20.044 457.911,19.44 455.343,19.44L455.343,19.441ZM412.276,19.369C408.728,19.369 405.752,20.516 403.348,22.811C400.943,25.105 399.578,28.096 399.251,31.786L425.371,31.786C425.044,28.096 423.679,25.105 421.275,22.811C418.87,20.516 415.871,19.369 412.276,19.369ZM303.383,19.369C299.835,19.369 296.859,20.516 294.455,22.811C292.05,25.105 290.685,28.096 290.358,31.786L316.478,31.786C316.152,28.096 314.786,25.105 312.382,22.811C309.977,20.516 306.978,19.369 303.383,19.369ZM235.876,0C236.903,0 237.766,0.343 238.466,1.029C239.166,1.715 239.516,2.531 239.516,3.477C239.516,4.517 239.166,5.392 238.466,6.102C237.766,6.812 236.903,7.166 235.876,7.166C234.848,7.166 233.985,6.811 233.284,6.102C232.584,5.392 232.234,4.541 232.234,3.548C232.234,2.602 232.584,1.774 233.284,1.064C233.984,0.354 234.848,0 235.876,0ZM188.606,0C189.634,0 190.498,0.343 191.198,1.029C191.898,1.715 192.248,2.531 192.248,3.477C192.248,4.517 191.898,5.392 191.198,6.102C190.498,6.812 189.634,7.166 188.607,7.166C187.58,7.166 186.717,6.811 186.016,6.102C185.316,5.392 184.966,4.541 184.966,3.548C184.966,2.602 185.316,1.774 186.016,1.064C186.716,0.354 187.58,0 188.606,0ZM490.286,0C491.313,0 492.176,0.343 492.876,1.029C493.577,1.715 493.927,2.531 493.927,3.477C493.927,4.517 493.577,5.392 492.877,6.102C492.177,6.812 491.313,7.166 490.286,7.166C489.259,7.166 488.396,6.811 487.695,6.102C486.995,5.392 486.645,4.541 486.645,3.548C486.645,2.602 486.995,1.774 487.695,1.064C488.395,0.354 489.259,0 490.285,0L490.286,0Z" style="fill:rgb(4,28,44);fill-rule:nonzero;"/>
                <path d="M113.853,15C117.103,15 120.033,15.72 122.641,17.16C125.208,18.558 127.331,20.65 128.768,23.195C130.243,25.778 130.981,28.7 130.981,31.961C130.981,35.221 130.243,38.144 128.768,40.727C127.292,43.311 125.25,45.333 122.641,46.794C121.212,47.594 119.687,48.175 118.065,48.537L119.184,56.78C121.23,56.899 123.102,57.424 124.793,58.358C126.704,59.4 128.285,60.957 129.356,62.852C130.452,64.772 131,66.942 131,69.354C131,71.766 130.452,73.936 129.356,75.856C128.283,77.754 126.704,79.317 124.796,80.372C122.856,81.457 120.681,82 118.276,82C115.87,82 113.695,81.457 111.756,80.372C109.845,79.314 108.26,77.753 107.174,75.858C106.061,73.938 105.505,71.767 105.505,69.354C105.505,66.941 106.061,64.77 107.175,62.85C108.258,60.958 109.845,59.403 111.759,58.358C112.555,57.918 113.392,57.568 114.268,57.31L113.135,48.973C110.17,48.873 107.48,48.147 105.065,46.793C102.496,45.372 100.366,43.274 98.906,40.727C97.854,38.911 97.172,36.928 96.859,34.777L86.717,35.252C86.51,38.21 85.717,40.897 84.335,43.315C82.712,46.158 80.465,48.383 77.593,49.991C74.722,51.599 71.498,52.403 67.921,52.403C64.344,52.403 61.12,51.599 58.249,49.991C55.422,48.427 53.078,46.118 51.471,43.315C49.824,40.472 49,37.255 49,33.667C49,30.077 49.824,26.862 51.471,24.019C53.118,21.176 55.378,18.962 58.249,17.377C61.119,15.792 64.344,15 67.92,15C71.497,15 74.721,15.792 77.592,17.377C80.463,18.962 82.711,21.176 84.334,24.019C85.448,25.969 86.18,28.095 86.53,30.397L96.763,29.917C97.014,27.467 97.728,25.227 98.905,23.195C100.36,20.653 102.493,18.563 105.064,17.16C107.672,15.72 110.602,15 113.852,15L113.853,15ZM118.286,60.297C116.618,60.297 115.122,60.673 113.796,61.427C112.471,62.179 111.429,63.25 110.67,64.637C109.91,66.025 109.53,67.605 109.53,69.377C109.53,71.148 109.91,72.728 110.67,74.116C111.43,75.504 112.471,76.574 113.797,77.327C115.122,78.08 116.618,78.457 118.286,78.457C119.953,78.457 121.45,78.08 122.775,77.327C124.1,76.574 125.135,75.504 125.879,74.116C126.624,72.728 126.996,71.148 126.996,69.376C126.996,67.606 126.624,66.026 125.879,64.638C125.135,63.25 124.099,62.179 122.775,61.426C121.45,60.673 119.953,60.297 118.285,60.297L118.286,60.297ZM67.92,19.335C65.284,19.335 62.919,19.929 60.825,21.117C58.73,22.306 57.083,23.995 55.883,26.187C54.683,28.377 54.083,30.87 54.083,33.667C54.083,36.463 54.683,38.957 55.883,41.147C57.083,43.338 58.73,45.027 60.825,46.217C62.919,47.405 65.285,47.999 67.92,47.999C70.555,47.999 72.92,47.405 75.015,46.216C77.11,45.028 78.745,43.338 79.922,41.147C81.099,38.957 81.687,36.463 81.687,33.667C81.687,30.87 81.099,28.377 79.922,26.187C78.745,23.995 77.11,22.306 75.015,21.117C72.921,19.929 70.555,19.335 67.92,19.335ZM113.852,18.939C111.457,18.939 109.308,19.479 107.405,20.559C105.502,21.639 104.005,23.173 102.915,25.164C101.825,27.154 101.279,29.42 101.279,31.961C101.279,34.502 101.824,36.768 102.915,38.758C104.005,40.748 105.502,42.284 107.405,43.364C109.308,44.444 111.457,44.984 113.852,44.984C116.247,44.984 118.396,44.444 120.299,43.364C122.202,42.284 123.689,40.749 124.757,38.758C125.827,36.768 126.361,34.502 126.361,31.961C126.361,29.42 125.826,27.154 124.757,25.164C123.688,23.174 122.202,21.638 120.299,20.558C118.396,19.478 116.247,18.938 113.852,18.938L113.852,18.939Z" style="fill:rgb(42,157,143);fill-rule:nonzero;"/>
            </g>
        </g>
    </g>
</svg>
